<?xml version="1.0" encoding="utf-8" standalone="no"?>
<!DOCTYPE svg PUBLIC "-//W3C//DTD SVG 1.1//EN"
  "http://www.w3.org/Graphics/SVG/1.1/DTD/svg11.dtd">
<svg xmlns:xlink="http://www.w3.org/1999/xlink" width="720pt" height="432pt" viewBox="0 0 720 432" xmlns="http://www.w3.org/2000/svg" version="1.1">
 <metadata>
  <rdf:RDF xmlns:dc="http://purl.org/dc/elements/1.1/" xmlns:cc="http://creativecommons.org/ns#" xmlns:rdf="http://www.w3.org/1999/02/22-rdf-syntax-ns#">
   <cc:Work>
    <dc:type rdf:resource="http://purl.org/dc/dcmitype/StillImage"/>
    <dc:date>2025-08-11T22:12:14.745650</dc:date>
    <dc:format>image/svg+xml</dc:format>
    <dc:creator>
     <cc:Agent>
      <dc:title>Matplotlib v3.9.4, https://matplotlib.org/</dc:title>
     </cc:Agent>
    </dc:creator>
   </cc:Work>
  </rdf:RDF>
 </metadata>
 <defs>
  <style type="text/css">*{stroke-linejoin: round; stroke-linecap: butt}</style>
 </defs>
 <g id="figure_1">
  <g id="patch_1">
   <path d="M 0 432 
L 720 432 
L 720 0 
L 0 0 
z
" style="fill: #ffffff"/>
  </g>
  <g id="axes_1">
   <g id="patch_2">
    <path d="M 54.02 390.04 
L 699.705 390.04 
L 699.705 26.88 
L 54.02 26.88 
z
" style="fill: #ffffff"/>
   </g>
   <g id="matplotlib.axis_1">
    <g id="xtick_1">
     <g id="line2d_1">
      <path d="M 112.718636 390.04 
L 112.718636 26.88 
" clip-path="url(#pe09ddd0c58)" style="fill: none; stroke: #b0b0b0; stroke-width: 0.8; stroke-linecap: square"/>
     </g>
     <g id="line2d_2">
      <defs>
       <path id="mebafb350a0" d="M 0 0 
L 0 3.5 
" style="stroke: #000000; stroke-width: 0.8"/>
      </defs>
      <g>
       <use xlink:href="#mebafb350a0" x="112.718636" y="390.04" style="stroke: #000000; stroke-width: 0.8"/>
      </g>
     </g>
     <g id="text_1">
      <!-- 400 -->
      <g transform="translate(103.174886 404.638438) scale(0.1 -0.1)">
       <defs>
        <path id="DejaVuSans-34" d="M 2419 4116 
L 825 1625 
L 2419 1625 
L 2419 4116 
z
M 2253 4666 
L 3047 4666 
L 3047 1625 
L 3713 1625 
L 3713 1100 
L 3047 1100 
L 3047 0 
L 2419 0 
L 2419 1100 
L 313 1100 
L 313 1709 
L 2253 4666 
z
" transform="scale(0.015625)"/>
        <path id="DejaVuSans-30" d="M 2034 4250 
Q 1547 4250 1301 3770 
Q 1056 3291 1056 2328 
Q 1056 1369 1301 889 
Q 1547 409 2034 409 
Q 2525 409 2770 889 
Q 3016 1369 3016 2328 
Q 3016 3291 2770 3770 
Q 2525 4250 2034 4250 
z
M 2034 4750 
Q 2819 4750 3233 4129 
Q 3647 3509 3647 2328 
Q 3647 1150 3233 529 
Q 2819 -91 2034 -91 
Q 1250 -91 836 529 
Q 422 1150 422 2328 
Q 422 3509 836 4129 
Q 1250 4750 2034 4750 
z
" transform="scale(0.015625)"/>
       </defs>
       <use xlink:href="#DejaVuSans-34"/>
       <use xlink:href="#DejaVuSans-30" x="63.623047"/>
       <use xlink:href="#DejaVuSans-30" x="127.246094"/>
      </g>
     </g>
    </g>
    <g id="xtick_2">
     <g id="line2d_3">
      <path d="M 186.091932 390.04 
L 186.091932 26.88 
" clip-path="url(#pe09ddd0c58)" style="fill: none; stroke: #b0b0b0; stroke-width: 0.8; stroke-linecap: square"/>
     </g>
     <g id="line2d_4">
      <g>
       <use xlink:href="#mebafb350a0" x="186.091932" y="390.04" style="stroke: #000000; stroke-width: 0.8"/>
      </g>
     </g>
     <g id="text_2">
      <!-- 450 -->
      <g transform="translate(176.548182 404.638438) scale(0.1 -0.1)">
       <defs>
        <path id="DejaVuSans-35" d="M 691 4666 
L 3169 4666 
L 3169 4134 
L 1269 4134 
L 1269 2991 
Q 1406 3038 1543 3061 
Q 1681 3084 1819 3084 
Q 2600 3084 3056 2656 
Q 3513 2228 3513 1497 
Q 3513 744 3044 326 
Q 2575 -91 1722 -91 
Q 1428 -91 1123 -41 
Q 819 9 494 109 
L 494 744 
Q 775 591 1075 516 
Q 1375 441 1709 441 
Q 2250 441 2565 725 
Q 2881 1009 2881 1497 
Q 2881 1984 2565 2268 
Q 2250 2553 1709 2553 
Q 1456 2553 1204 2497 
Q 953 2441 691 2322 
L 691 4666 
z
" transform="scale(0.015625)"/>
       </defs>
       <use xlink:href="#DejaVuSans-34"/>
       <use xlink:href="#DejaVuSans-35" x="63.623047"/>
       <use xlink:href="#DejaVuSans-30" x="127.246094"/>
      </g>
     </g>
    </g>
    <g id="xtick_3">
     <g id="line2d_5">
      <path d="M 259.465227 390.04 
L 259.465227 26.88 
" clip-path="url(#pe09ddd0c58)" style="fill: none; stroke: #b0b0b0; stroke-width: 0.8; stroke-linecap: square"/>
     </g>
     <g id="line2d_6">
      <g>
       <use xlink:href="#mebafb350a0" x="259.465227" y="390.04" style="stroke: #000000; stroke-width: 0.8"/>
      </g>
     </g>
     <g id="text_3">
      <!-- 500 -->
      <g transform="translate(249.921477 404.638438) scale(0.1 -0.1)">
       <use xlink:href="#DejaVuSans-35"/>
       <use xlink:href="#DejaVuSans-30" x="63.623047"/>
       <use xlink:href="#DejaVuSans-30" x="127.246094"/>
      </g>
     </g>
    </g>
    <g id="xtick_4">
     <g id="line2d_7">
      <path d="M 332.838523 390.04 
L 332.838523 26.88 
" clip-path="url(#pe09ddd0c58)" style="fill: none; stroke: #b0b0b0; stroke-width: 0.8; stroke-linecap: square"/>
     </g>
     <g id="line2d_8">
      <g>
       <use xlink:href="#mebafb350a0" x="332.838523" y="390.04" style="stroke: #000000; stroke-width: 0.8"/>
      </g>
     </g>
     <g id="text_4">
      <!-- 550 -->
      <g transform="translate(323.294773 404.638438) scale(0.1 -0.1)">
       <use xlink:href="#DejaVuSans-35"/>
       <use xlink:href="#DejaVuSans-35" x="63.623047"/>
       <use xlink:href="#DejaVuSans-30" x="127.246094"/>
      </g>
     </g>
    </g>
    <g id="xtick_5">
     <g id="line2d_9">
      <path d="M 406.211818 390.04 
L 406.211818 26.88 
" clip-path="url(#pe09ddd0c58)" style="fill: none; stroke: #b0b0b0; stroke-width: 0.8; stroke-linecap: square"/>
     </g>
     <g id="line2d_10">
      <g>
       <use xlink:href="#mebafb350a0" x="406.211818" y="390.04" style="stroke: #000000; stroke-width: 0.8"/>
      </g>
     </g>
     <g id="text_5">
      <!-- 600 -->
      <g transform="translate(396.668068 404.638438) scale(0.1 -0.1)">
       <defs>
        <path id="DejaVuSans-36" d="M 2113 2584 
Q 1688 2584 1439 2293 
Q 1191 2003 1191 1497 
Q 1191 994 1439 701 
Q 1688 409 2113 409 
Q 2538 409 2786 701 
Q 3034 994 3034 1497 
Q 3034 2003 2786 2293 
Q 2538 2584 2113 2584 
z
M 3366 4563 
L 3366 3988 
Q 3128 4100 2886 4159 
Q 2644 4219 2406 4219 
Q 1781 4219 1451 3797 
Q 1122 3375 1075 2522 
Q 1259 2794 1537 2939 
Q 1816 3084 2150 3084 
Q 2853 3084 3261 2657 
Q 3669 2231 3669 1497 
Q 3669 778 3244 343 
Q 2819 -91 2113 -91 
Q 1303 -91 875 529 
Q 447 1150 447 2328 
Q 447 3434 972 4092 
Q 1497 4750 2381 4750 
Q 2619 4750 2861 4703 
Q 3103 4656 3366 4563 
z
" transform="scale(0.015625)"/>
       </defs>
       <use xlink:href="#DejaVuSans-36"/>
       <use xlink:href="#DejaVuSans-30" x="63.623047"/>
       <use xlink:href="#DejaVuSans-30" x="127.246094"/>
      </g>
     </g>
    </g>
    <g id="xtick_6">
     <g id="line2d_11">
      <path d="M 479.585114 390.04 
L 479.585114 26.88 
" clip-path="url(#pe09ddd0c58)" style="fill: none; stroke: #b0b0b0; stroke-width: 0.8; stroke-linecap: square"/>
     </g>
     <g id="line2d_12">
      <g>
       <use xlink:href="#mebafb350a0" x="479.585114" y="390.04" style="stroke: #000000; stroke-width: 0.8"/>
      </g>
     </g>
     <g id="text_6">
      <!-- 650 -->
      <g transform="translate(470.041364 404.638438) scale(0.1 -0.1)">
       <use xlink:href="#DejaVuSans-36"/>
       <use xlink:href="#DejaVuSans-35" x="63.623047"/>
       <use xlink:href="#DejaVuSans-30" x="127.246094"/>
      </g>
     </g>
    </g>
    <g id="xtick_7">
     <g id="line2d_13">
      <path d="M 552.958409 390.04 
L 552.958409 26.88 
" clip-path="url(#pe09ddd0c58)" style="fill: none; stroke: #b0b0b0; stroke-width: 0.8; stroke-linecap: square"/>
     </g>
     <g id="line2d_14">
      <g>
       <use xlink:href="#mebafb350a0" x="552.958409" y="390.04" style="stroke: #000000; stroke-width: 0.8"/>
      </g>
     </g>
     <g id="text_7">
      <!-- 700 -->
      <g transform="translate(543.414659 404.638438) scale(0.1 -0.1)">
       <defs>
        <path id="DejaVuSans-37" d="M 525 4666 
L 3525 4666 
L 3525 4397 
L 1831 0 
L 1172 0 
L 2766 4134 
L 525 4134 
L 525 4666 
z
" transform="scale(0.015625)"/>
       </defs>
       <use xlink:href="#DejaVuSans-37"/>
       <use xlink:href="#DejaVuSans-30" x="63.623047"/>
       <use xlink:href="#DejaVuSans-30" x="127.246094"/>
      </g>
     </g>
    </g>
    <g id="xtick_8">
     <g id="line2d_15">
      <path d="M 626.331705 390.04 
L 626.331705 26.88 
" clip-path="url(#pe09ddd0c58)" style="fill: none; stroke: #b0b0b0; stroke-width: 0.8; stroke-linecap: square"/>
     </g>
     <g id="line2d_16">
      <g>
       <use xlink:href="#mebafb350a0" x="626.331705" y="390.04" style="stroke: #000000; stroke-width: 0.8"/>
      </g>
     </g>
     <g id="text_8">
      <!-- 750 -->
      <g transform="translate(616.787955 404.638438) scale(0.1 -0.1)">
       <use xlink:href="#DejaVuSans-37"/>
       <use xlink:href="#DejaVuSans-35" x="63.623047"/>
       <use xlink:href="#DejaVuSans-30" x="127.246094"/>
      </g>
     </g>
    </g>
    <g id="xtick_9">
     <g id="line2d_17">
      <path d="M 699.705 390.04 
L 699.705 26.88 
" clip-path="url(#pe09ddd0c58)" style="fill: none; stroke: #b0b0b0; stroke-width: 0.8; stroke-linecap: square"/>
     </g>
     <g id="line2d_18">
      <g>
       <use xlink:href="#mebafb350a0" x="699.705" y="390.04" style="stroke: #000000; stroke-width: 0.8"/>
      </g>
     </g>
     <g id="text_9">
      <!-- 800 -->
      <g transform="translate(690.16125 404.638438) scale(0.1 -0.1)">
       <defs>
        <path id="DejaVuSans-38" d="M 2034 2216 
Q 1584 2216 1326 1975 
Q 1069 1734 1069 1313 
Q 1069 891 1326 650 
Q 1584 409 2034 409 
Q 2484 409 2743 651 
Q 3003 894 3003 1313 
Q 3003 1734 2745 1975 
Q 2488 2216 2034 2216 
z
M 1403 2484 
Q 997 2584 770 2862 
Q 544 3141 544 3541 
Q 544 4100 942 4425 
Q 1341 4750 2034 4750 
Q 2731 4750 3128 4425 
Q 3525 4100 3525 3541 
Q 3525 3141 3298 2862 
Q 3072 2584 2669 2484 
Q 3125 2378 3379 2068 
Q 3634 1759 3634 1313 
Q 3634 634 3220 271 
Q 2806 -91 2034 -91 
Q 1263 -91 848 271 
Q 434 634 434 1313 
Q 434 1759 690 2068 
Q 947 2378 1403 2484 
z
M 1172 3481 
Q 1172 3119 1398 2916 
Q 1625 2713 2034 2713 
Q 2441 2713 2670 2916 
Q 2900 3119 2900 3481 
Q 2900 3844 2670 4047 
Q 2441 4250 2034 4250 
Q 1625 4250 1398 4047 
Q 1172 3844 1172 3481 
z
" transform="scale(0.015625)"/>
       </defs>
       <use xlink:href="#DejaVuSans-38"/>
       <use xlink:href="#DejaVuSans-30" x="63.623047"/>
       <use xlink:href="#DejaVuSans-30" x="127.246094"/>
      </g>
     </g>
    </g>
    <g id="text_10">
     <!-- Wavelength (nm) -->
     <g transform="translate(333.670312 418.316562) scale(0.1 -0.1)">
      <defs>
       <path id="DejaVuSans-57" d="M 213 4666 
L 850 4666 
L 1831 722 
L 2809 4666 
L 3519 4666 
L 4500 722 
L 5478 4666 
L 6119 4666 
L 4947 0 
L 4153 0 
L 3169 4050 
L 2175 0 
L 1381 0 
L 213 4666 
z
" transform="scale(0.015625)"/>
       <path id="DejaVuSans-61" d="M 2194 1759 
Q 1497 1759 1228 1600 
Q 959 1441 959 1056 
Q 959 750 1161 570 
Q 1363 391 1709 391 
Q 2188 391 2477 730 
Q 2766 1069 2766 1631 
L 2766 1759 
L 2194 1759 
z
M 3341 1997 
L 3341 0 
L 2766 0 
L 2766 531 
Q 2569 213 2275 61 
Q 1981 -91 1556 -91 
Q 1019 -91 701 211 
Q 384 513 384 1019 
Q 384 1609 779 1909 
Q 1175 2209 1959 2209 
L 2766 2209 
L 2766 2266 
Q 2766 2663 2505 2880 
Q 2244 3097 1772 3097 
Q 1472 3097 1187 3025 
Q 903 2953 641 2809 
L 641 3341 
Q 956 3463 1253 3523 
Q 1550 3584 1831 3584 
Q 2591 3584 2966 3190 
Q 3341 2797 3341 1997 
z
" transform="scale(0.015625)"/>
       <path id="DejaVuSans-76" d="M 191 3500 
L 800 3500 
L 1894 563 
L 2988 3500 
L 3597 3500 
L 2284 0 
L 1503 0 
L 191 3500 
z
" transform="scale(0.015625)"/>
       <path id="DejaVuSans-65" d="M 3597 1894 
L 3597 1613 
L 953 1613 
Q 991 1019 1311 708 
Q 1631 397 2203 397 
Q 2534 397 2845 478 
Q 3156 559 3463 722 
L 3463 178 
Q 3153 47 2828 -22 
Q 2503 -91 2169 -91 
Q 1331 -91 842 396 
Q 353 884 353 1716 
Q 353 2575 817 3079 
Q 1281 3584 2069 3584 
Q 2775 3584 3186 3129 
Q 3597 2675 3597 1894 
z
M 3022 2063 
Q 3016 2534 2758 2815 
Q 2500 3097 2075 3097 
Q 1594 3097 1305 2825 
Q 1016 2553 972 2059 
L 3022 2063 
z
" transform="scale(0.015625)"/>
       <path id="DejaVuSans-6c" d="M 603 4863 
L 1178 4863 
L 1178 0 
L 603 0 
L 603 4863 
z
" transform="scale(0.015625)"/>
       <path id="DejaVuSans-6e" d="M 3513 2113 
L 3513 0 
L 2938 0 
L 2938 2094 
Q 2938 2591 2744 2837 
Q 2550 3084 2163 3084 
Q 1697 3084 1428 2787 
Q 1159 2491 1159 1978 
L 1159 0 
L 581 0 
L 581 3500 
L 1159 3500 
L 1159 2956 
Q 1366 3272 1645 3428 
Q 1925 3584 2291 3584 
Q 2894 3584 3203 3211 
Q 3513 2838 3513 2113 
z
" transform="scale(0.015625)"/>
       <path id="DejaVuSans-67" d="M 2906 1791 
Q 2906 2416 2648 2759 
Q 2391 3103 1925 3103 
Q 1463 3103 1205 2759 
Q 947 2416 947 1791 
Q 947 1169 1205 825 
Q 1463 481 1925 481 
Q 2391 481 2648 825 
Q 2906 1169 2906 1791 
z
M 3481 434 
Q 3481 -459 3084 -895 
Q 2688 -1331 1869 -1331 
Q 1566 -1331 1297 -1286 
Q 1028 -1241 775 -1147 
L 775 -588 
Q 1028 -725 1275 -790 
Q 1522 -856 1778 -856 
Q 2344 -856 2625 -561 
Q 2906 -266 2906 331 
L 2906 616 
Q 2728 306 2450 153 
Q 2172 0 1784 0 
Q 1141 0 747 490 
Q 353 981 353 1791 
Q 353 2603 747 3093 
Q 1141 3584 1784 3584 
Q 2172 3584 2450 3431 
Q 2728 3278 2906 2969 
L 2906 3500 
L 3481 3500 
L 3481 434 
z
" transform="scale(0.015625)"/>
       <path id="DejaVuSans-74" d="M 1172 4494 
L 1172 3500 
L 2356 3500 
L 2356 3053 
L 1172 3053 
L 1172 1153 
Q 1172 725 1289 603 
Q 1406 481 1766 481 
L 2356 481 
L 2356 0 
L 1766 0 
Q 1100 0 847 248 
Q 594 497 594 1153 
L 594 3053 
L 172 3053 
L 172 3500 
L 594 3500 
L 594 4494 
L 1172 4494 
z
" transform="scale(0.015625)"/>
       <path id="DejaVuSans-68" d="M 3513 2113 
L 3513 0 
L 2938 0 
L 2938 2094 
Q 2938 2591 2744 2837 
Q 2550 3084 2163 3084 
Q 1697 3084 1428 2787 
Q 1159 2491 1159 1978 
L 1159 0 
L 581 0 
L 581 4863 
L 1159 4863 
L 1159 2956 
Q 1366 3272 1645 3428 
Q 1925 3584 2291 3584 
Q 2894 3584 3203 3211 
Q 3513 2838 3513 2113 
z
" transform="scale(0.015625)"/>
       <path id="DejaVuSans-20" transform="scale(0.015625)"/>
       <path id="DejaVuSans-28" d="M 1984 4856 
Q 1566 4138 1362 3434 
Q 1159 2731 1159 2009 
Q 1159 1288 1364 580 
Q 1569 -128 1984 -844 
L 1484 -844 
Q 1016 -109 783 600 
Q 550 1309 550 2009 
Q 550 2706 781 3412 
Q 1013 4119 1484 4856 
L 1984 4856 
z
" transform="scale(0.015625)"/>
       <path id="DejaVuSans-6d" d="M 3328 2828 
Q 3544 3216 3844 3400 
Q 4144 3584 4550 3584 
Q 5097 3584 5394 3201 
Q 5691 2819 5691 2113 
L 5691 0 
L 5113 0 
L 5113 2094 
Q 5113 2597 4934 2840 
Q 4756 3084 4391 3084 
Q 3944 3084 3684 2787 
Q 3425 2491 3425 1978 
L 3425 0 
L 2847 0 
L 2847 2094 
Q 2847 2600 2669 2842 
Q 2491 3084 2119 3084 
Q 1678 3084 1418 2786 
Q 1159 2488 1159 1978 
L 1159 0 
L 581 0 
L 581 3500 
L 1159 3500 
L 1159 2956 
Q 1356 3278 1631 3431 
Q 1906 3584 2284 3584 
Q 2666 3584 2933 3390 
Q 3200 3197 3328 2828 
z
" transform="scale(0.015625)"/>
       <path id="DejaVuSans-29" d="M 513 4856 
L 1013 4856 
Q 1481 4119 1714 3412 
Q 1947 2706 1947 2009 
Q 1947 1309 1714 600 
Q 1481 -109 1013 -844 
L 513 -844 
Q 928 -128 1133 580 
Q 1338 1288 1338 2009 
Q 1338 2731 1133 3434 
Q 928 4138 513 4856 
z
" transform="scale(0.015625)"/>
      </defs>
      <use xlink:href="#DejaVuSans-57"/>
      <use xlink:href="#DejaVuSans-61" x="92.501953"/>
      <use xlink:href="#DejaVuSans-76" x="153.78125"/>
      <use xlink:href="#DejaVuSans-65" x="212.960938"/>
      <use xlink:href="#DejaVuSans-6c" x="274.484375"/>
      <use xlink:href="#DejaVuSans-65" x="302.267578"/>
      <use xlink:href="#DejaVuSans-6e" x="363.791016"/>
      <use xlink:href="#DejaVuSans-67" x="427.169922"/>
      <use xlink:href="#DejaVuSans-74" x="490.646484"/>
      <use xlink:href="#DejaVuSans-68" x="529.855469"/>
      <use xlink:href="#DejaVuSans-20" x="593.234375"/>
      <use xlink:href="#DejaVuSans-28" x="625.021484"/>
      <use xlink:href="#DejaVuSans-6e" x="664.035156"/>
      <use xlink:href="#DejaVuSans-6d" x="727.414062"/>
      <use xlink:href="#DejaVuSans-29" x="824.826172"/>
     </g>
    </g>
   </g>
   <g id="matplotlib.axis_2">
    <g id="ytick_1">
     <g id="line2d_19">
      <path d="M 54.02 373.532727 
L 699.705 373.532727 
" clip-path="url(#pe09ddd0c58)" style="fill: none; stroke: #b0b0b0; stroke-width: 0.8; stroke-linecap: square"/>
     </g>
     <g id="line2d_20">
      <defs>
       <path id="m0de354829a" d="M 0 0 
L -3.5 0 
" style="stroke: #000000; stroke-width: 0.8"/>
      </defs>
      <g>
       <use xlink:href="#m0de354829a" x="54.02" y="373.532727" style="stroke: #000000; stroke-width: 0.8"/>
      </g>
     </g>
     <g id="text_11">
      <!-- 0.00 -->
      <g transform="translate(24.754375 377.331946) scale(0.1 -0.1)">
       <defs>
        <path id="DejaVuSans-2e" d="M 684 794 
L 1344 794 
L 1344 0 
L 684 0 
L 684 794 
z
" transform="scale(0.015625)"/>
       </defs>
       <use xlink:href="#DejaVuSans-30"/>
       <use xlink:href="#DejaVuSans-2e" x="63.623047"/>
       <use xlink:href="#DejaVuSans-30" x="95.410156"/>
       <use xlink:href="#DejaVuSans-30" x="159.033203"/>
      </g>
     </g>
    </g>
    <g id="ytick_2">
     <g id="line2d_21">
      <path d="M 54.02 327.241176 
L 699.705 327.241176 
" clip-path="url(#pe09ddd0c58)" style="fill: none; stroke: #b0b0b0; stroke-width: 0.8; stroke-linecap: square"/>
     </g>
     <g id="line2d_22">
      <g>
       <use xlink:href="#m0de354829a" x="54.02" y="327.241176" style="stroke: #000000; stroke-width: 0.8"/>
      </g>
     </g>
     <g id="text_12">
      <!-- 0.25 -->
      <g transform="translate(24.754375 331.040395) scale(0.1 -0.1)">
       <defs>
        <path id="DejaVuSans-32" d="M 1228 531 
L 3431 531 
L 3431 0 
L 469 0 
L 469 531 
Q 828 903 1448 1529 
Q 2069 2156 2228 2338 
Q 2531 2678 2651 2914 
Q 2772 3150 2772 3378 
Q 2772 3750 2511 3984 
Q 2250 4219 1831 4219 
Q 1534 4219 1204 4116 
Q 875 4013 500 3803 
L 500 4441 
Q 881 4594 1212 4672 
Q 1544 4750 1819 4750 
Q 2544 4750 2975 4387 
Q 3406 4025 3406 3419 
Q 3406 3131 3298 2873 
Q 3191 2616 2906 2266 
Q 2828 2175 2409 1742 
Q 1991 1309 1228 531 
z
" transform="scale(0.015625)"/>
       </defs>
       <use xlink:href="#DejaVuSans-30"/>
       <use xlink:href="#DejaVuSans-2e" x="63.623047"/>
       <use xlink:href="#DejaVuSans-32" x="95.410156"/>
       <use xlink:href="#DejaVuSans-35" x="159.033203"/>
      </g>
     </g>
    </g>
    <g id="ytick_3">
     <g id="line2d_23">
      <path d="M 54.02 280.949625 
L 699.705 280.949625 
" clip-path="url(#pe09ddd0c58)" style="fill: none; stroke: #b0b0b0; stroke-width: 0.8; stroke-linecap: square"/>
     </g>
     <g id="line2d_24">
      <g>
       <use xlink:href="#m0de354829a" x="54.02" y="280.949625" style="stroke: #000000; stroke-width: 0.8"/>
      </g>
     </g>
     <g id="text_13">
      <!-- 0.50 -->
      <g transform="translate(24.754375 284.748844) scale(0.1 -0.1)">
       <use xlink:href="#DejaVuSans-30"/>
       <use xlink:href="#DejaVuSans-2e" x="63.623047"/>
       <use xlink:href="#DejaVuSans-35" x="95.410156"/>
       <use xlink:href="#DejaVuSans-30" x="159.033203"/>
      </g>
     </g>
    </g>
    <g id="ytick_4">
     <g id="line2d_25">
      <path d="M 54.02 234.658074 
L 699.705 234.658074 
" clip-path="url(#pe09ddd0c58)" style="fill: none; stroke: #b0b0b0; stroke-width: 0.8; stroke-linecap: square"/>
     </g>
     <g id="line2d_26">
      <g>
       <use xlink:href="#m0de354829a" x="54.02" y="234.658074" style="stroke: #000000; stroke-width: 0.8"/>
      </g>
     </g>
     <g id="text_14">
      <!-- 0.75 -->
      <g transform="translate(24.754375 238.457293) scale(0.1 -0.1)">
       <use xlink:href="#DejaVuSans-30"/>
       <use xlink:href="#DejaVuSans-2e" x="63.623047"/>
       <use xlink:href="#DejaVuSans-37" x="95.410156"/>
       <use xlink:href="#DejaVuSans-35" x="159.033203"/>
      </g>
     </g>
    </g>
    <g id="ytick_5">
     <g id="line2d_27">
      <path d="M 54.02 188.366523 
L 699.705 188.366523 
" clip-path="url(#pe09ddd0c58)" style="fill: none; stroke: #b0b0b0; stroke-width: 0.8; stroke-linecap: square"/>
     </g>
     <g id="line2d_28">
      <g>
       <use xlink:href="#m0de354829a" x="54.02" y="188.366523" style="stroke: #000000; stroke-width: 0.8"/>
      </g>
     </g>
     <g id="text_15">
      <!-- 1.00 -->
      <g transform="translate(24.754375 192.165741) scale(0.1 -0.1)">
       <defs>
        <path id="DejaVuSans-31" d="M 794 531 
L 1825 531 
L 1825 4091 
L 703 3866 
L 703 4441 
L 1819 4666 
L 2450 4666 
L 2450 531 
L 3481 531 
L 3481 0 
L 794 0 
L 794 531 
z
" transform="scale(0.015625)"/>
       </defs>
       <use xlink:href="#DejaVuSans-31"/>
       <use xlink:href="#DejaVuSans-2e" x="63.623047"/>
       <use xlink:href="#DejaVuSans-30" x="95.410156"/>
       <use xlink:href="#DejaVuSans-30" x="159.033203"/>
      </g>
     </g>
    </g>
    <g id="ytick_6">
     <g id="line2d_29">
      <path d="M 54.02 142.074972 
L 699.705 142.074972 
" clip-path="url(#pe09ddd0c58)" style="fill: none; stroke: #b0b0b0; stroke-width: 0.8; stroke-linecap: square"/>
     </g>
     <g id="line2d_30">
      <g>
       <use xlink:href="#m0de354829a" x="54.02" y="142.074972" style="stroke: #000000; stroke-width: 0.8"/>
      </g>
     </g>
     <g id="text_16">
      <!-- 1.25 -->
      <g transform="translate(24.754375 145.87419) scale(0.1 -0.1)">
       <use xlink:href="#DejaVuSans-31"/>
       <use xlink:href="#DejaVuSans-2e" x="63.623047"/>
       <use xlink:href="#DejaVuSans-32" x="95.410156"/>
       <use xlink:href="#DejaVuSans-35" x="159.033203"/>
      </g>
     </g>
    </g>
    <g id="ytick_7">
     <g id="line2d_31">
      <path d="M 54.02 95.78342 
L 699.705 95.78342 
" clip-path="url(#pe09ddd0c58)" style="fill: none; stroke: #b0b0b0; stroke-width: 0.8; stroke-linecap: square"/>
     </g>
     <g id="line2d_32">
      <g>
       <use xlink:href="#m0de354829a" x="54.02" y="95.78342" style="stroke: #000000; stroke-width: 0.8"/>
      </g>
     </g>
     <g id="text_17">
      <!-- 1.50 -->
      <g transform="translate(24.754375 99.582639) scale(0.1 -0.1)">
       <use xlink:href="#DejaVuSans-31"/>
       <use xlink:href="#DejaVuSans-2e" x="63.623047"/>
       <use xlink:href="#DejaVuSans-35" x="95.410156"/>
       <use xlink:href="#DejaVuSans-30" x="159.033203"/>
      </g>
     </g>
    </g>
    <g id="ytick_8">
     <g id="line2d_33">
      <path d="M 54.02 49.491869 
L 699.705 49.491869 
" clip-path="url(#pe09ddd0c58)" style="fill: none; stroke: #b0b0b0; stroke-width: 0.8; stroke-linecap: square"/>
     </g>
     <g id="line2d_34">
      <g>
       <use xlink:href="#m0de354829a" x="54.02" y="49.491869" style="stroke: #000000; stroke-width: 0.8"/>
      </g>
     </g>
     <g id="text_18">
      <!-- 1.75 -->
      <g transform="translate(24.754375 53.291088) scale(0.1 -0.1)">
       <use xlink:href="#DejaVuSans-31"/>
       <use xlink:href="#DejaVuSans-2e" x="63.623047"/>
       <use xlink:href="#DejaVuSans-37" x="95.410156"/>
       <use xlink:href="#DejaVuSans-35" x="159.033203"/>
      </g>
     </g>
    </g>
    <g id="text_19">
     <!-- Color Matching Function -->
     <g transform="translate(18.674688 268.945938) rotate(-90) scale(0.1 -0.1)">
      <defs>
       <path id="DejaVuSans-43" d="M 4122 4306 
L 4122 3641 
Q 3803 3938 3442 4084 
Q 3081 4231 2675 4231 
Q 1875 4231 1450 3742 
Q 1025 3253 1025 2328 
Q 1025 1406 1450 917 
Q 1875 428 2675 428 
Q 3081 428 3442 575 
Q 3803 722 4122 1019 
L 4122 359 
Q 3791 134 3420 21 
Q 3050 -91 2638 -91 
Q 1578 -91 968 557 
Q 359 1206 359 2328 
Q 359 3453 968 4101 
Q 1578 4750 2638 4750 
Q 3056 4750 3426 4639 
Q 3797 4528 4122 4306 
z
" transform="scale(0.015625)"/>
       <path id="DejaVuSans-6f" d="M 1959 3097 
Q 1497 3097 1228 2736 
Q 959 2375 959 1747 
Q 959 1119 1226 758 
Q 1494 397 1959 397 
Q 2419 397 2687 759 
Q 2956 1122 2956 1747 
Q 2956 2369 2687 2733 
Q 2419 3097 1959 3097 
z
M 1959 3584 
Q 2709 3584 3137 3096 
Q 3566 2609 3566 1747 
Q 3566 888 3137 398 
Q 2709 -91 1959 -91 
Q 1206 -91 779 398 
Q 353 888 353 1747 
Q 353 2609 779 3096 
Q 1206 3584 1959 3584 
z
" transform="scale(0.015625)"/>
       <path id="DejaVuSans-72" d="M 2631 2963 
Q 2534 3019 2420 3045 
Q 2306 3072 2169 3072 
Q 1681 3072 1420 2755 
Q 1159 2438 1159 1844 
L 1159 0 
L 581 0 
L 581 3500 
L 1159 3500 
L 1159 2956 
Q 1341 3275 1631 3429 
Q 1922 3584 2338 3584 
Q 2397 3584 2469 3576 
Q 2541 3569 2628 3553 
L 2631 2963 
z
" transform="scale(0.015625)"/>
       <path id="DejaVuSans-4d" d="M 628 4666 
L 1569 4666 
L 2759 1491 
L 3956 4666 
L 4897 4666 
L 4897 0 
L 4281 0 
L 4281 4097 
L 3078 897 
L 2444 897 
L 1241 4097 
L 1241 0 
L 628 0 
L 628 4666 
z
" transform="scale(0.015625)"/>
       <path id="DejaVuSans-63" d="M 3122 3366 
L 3122 2828 
Q 2878 2963 2633 3030 
Q 2388 3097 2138 3097 
Q 1578 3097 1268 2742 
Q 959 2388 959 1747 
Q 959 1106 1268 751 
Q 1578 397 2138 397 
Q 2388 397 2633 464 
Q 2878 531 3122 666 
L 3122 134 
Q 2881 22 2623 -34 
Q 2366 -91 2075 -91 
Q 1284 -91 818 406 
Q 353 903 353 1747 
Q 353 2603 823 3093 
Q 1294 3584 2113 3584 
Q 2378 3584 2631 3529 
Q 2884 3475 3122 3366 
z
" transform="scale(0.015625)"/>
       <path id="DejaVuSans-69" d="M 603 3500 
L 1178 3500 
L 1178 0 
L 603 0 
L 603 3500 
z
M 603 4863 
L 1178 4863 
L 1178 4134 
L 603 4134 
L 603 4863 
z
" transform="scale(0.015625)"/>
       <path id="DejaVuSans-46" d="M 628 4666 
L 3309 4666 
L 3309 4134 
L 1259 4134 
L 1259 2759 
L 3109 2759 
L 3109 2228 
L 1259 2228 
L 1259 0 
L 628 0 
L 628 4666 
z
" transform="scale(0.015625)"/>
       <path id="DejaVuSans-75" d="M 544 1381 
L 544 3500 
L 1119 3500 
L 1119 1403 
Q 1119 906 1312 657 
Q 1506 409 1894 409 
Q 2359 409 2629 706 
Q 2900 1003 2900 1516 
L 2900 3500 
L 3475 3500 
L 3475 0 
L 2900 0 
L 2900 538 
Q 2691 219 2414 64 
Q 2138 -91 1772 -91 
Q 1169 -91 856 284 
Q 544 659 544 1381 
z
M 1991 3584 
L 1991 3584 
z
" transform="scale(0.015625)"/>
      </defs>
      <use xlink:href="#DejaVuSans-43"/>
      <use xlink:href="#DejaVuSans-6f" x="69.824219"/>
      <use xlink:href="#DejaVuSans-6c" x="131.005859"/>
      <use xlink:href="#DejaVuSans-6f" x="158.789062"/>
      <use xlink:href="#DejaVuSans-72" x="219.970703"/>
      <use xlink:href="#DejaVuSans-20" x="261.083984"/>
      <use xlink:href="#DejaVuSans-4d" x="292.871094"/>
      <use xlink:href="#DejaVuSans-61" x="379.150391"/>
      <use xlink:href="#DejaVuSans-74" x="440.429688"/>
      <use xlink:href="#DejaVuSans-63" x="479.638672"/>
      <use xlink:href="#DejaVuSans-68" x="534.619141"/>
      <use xlink:href="#DejaVuSans-69" x="597.998047"/>
      <use xlink:href="#DejaVuSans-6e" x="625.78125"/>
      <use xlink:href="#DejaVuSans-67" x="689.160156"/>
      <use xlink:href="#DejaVuSans-20" x="752.636719"/>
      <use xlink:href="#DejaVuSans-46" x="784.423828"/>
      <use xlink:href="#DejaVuSans-75" x="836.443359"/>
      <use xlink:href="#DejaVuSans-6e" x="899.822266"/>
      <use xlink:href="#DejaVuSans-63" x="963.201172"/>
      <use xlink:href="#DejaVuSans-74" x="1018.181641"/>
      <use xlink:href="#DejaVuSans-69" x="1057.390625"/>
      <use xlink:href="#DejaVuSans-6f" x="1085.173828"/>
      <use xlink:href="#DejaVuSans-6e" x="1146.355469"/>
     </g>
    </g>
   </g>
   <g id="line2d_35">
    <path d="M 83.369318 373.27942 
L 93.64158 372.997115 
L 100.978909 372.545783 
L 105.381307 372.116206 
L 109.783705 371.417814 
L 117.121034 370.05508 
L 120.055966 369.238723 
L 122.990898 368.018018 
L 125.92583 366.409709 
L 128.860761 364.460398 
L 131.795693 362.104491 
L 133.263159 360.717004 
L 134.730625 359.158275 
L 137.665557 355.538883 
L 139.133023 353.459544 
L 140.600489 351.170723 
L 142.067955 348.650093 
L 145.002886 342.907033 
L 149.405284 333.764582 
L 152.340216 328.189283 
L 155.275148 323.20309 
L 158.21008 318.919103 
L 159.677545 317.0762 
L 161.145011 315.429924 
L 162.612477 313.974869 
L 164.079943 312.705629 
L 165.547409 311.622166 
L 167.014875 310.72248 
L 168.482341 309.998258 
L 169.949807 309.441223 
L 171.417273 309.043042 
L 172.884739 308.798641 
L 174.352205 308.697262 
L 177.287136 308.856579 
L 180.222068 309.396098 
L 183.157 310.241289 
L 187.559398 311.835774 
L 190.49433 313.050834 
L 193.429261 314.520258 
L 196.364193 316.337849 
L 199.299125 318.49061 
L 202.234057 320.951062 
L 205.168989 323.738239 
L 208.10392 327.037493 
L 211.038852 330.972053 
L 218.376182 341.438369 
L 222.77858 347.22061 
L 227.180977 352.557988 
L 230.115909 355.823431 
L 233.050841 358.847559 
L 235.985773 361.57451 
L 238.920705 363.929617 
L 241.855636 365.912975 
L 244.790568 367.605557 
L 247.7255 369.062 
L 250.660432 370.284838 
L 253.595364 371.280775 
L 256.530295 372.057464 
L 259.465227 372.625413 
L 262.400159 372.987354 
L 265.335091 373.118641 
L 268.270023 372.99102 
L 271.204955 372.574522 
L 274.139886 371.810682 
L 277.074818 370.656007 
L 280.00975 369.090077 
L 282.944682 367.086194 
L 285.879614 364.64752 
L 288.814545 361.817262 
L 291.749477 358.63384 
L 294.684409 355.116754 
L 297.619341 351.281786 
L 302.021739 345.044129 
L 307.891602 336.282953 
L 312.294 329.403751 
L 318.163864 319.760461 
L 324.033727 309.560988 
L 329.903591 298.84068 
L 335.773455 287.553392 
L 341.643318 275.710181 
L 350.448114 257.252832 
L 365.122773 226.357888 
L 370.992636 214.672622 
L 375.395034 206.453909 
L 378.329966 201.365283 
L 381.264898 196.6476 
L 384.19983 192.329079 
L 387.134761 188.45007 
L 390.069693 185.032346 
L 393.004625 182.074075 
L 394.472091 180.777301 
L 395.939557 179.6289 
L 397.407023 178.651463 
L 398.874489 177.867599 
L 400.341955 177.294621 
L 401.80942 176.923399 
L 403.276886 176.736826 
L 404.744352 176.717791 
L 406.211818 176.849185 
L 407.679284 177.120416 
L 409.14675 177.544743 
L 410.614216 178.14083 
L 412.081682 178.927342 
L 413.549148 179.922944 
L 415.016614 181.138208 
L 416.48408 182.559562 
L 417.951545 184.169508 
L 420.886477 187.885091 
L 423.821409 192.193649 
L 426.756341 197.097498 
L 429.691273 202.588398 
L 432.626205 208.641852 
L 435.561136 215.317482 
L 438.496068 222.632269 
L 442.898466 234.398841 
L 451.703261 258.449172 
L 456.105659 269.580846 
L 461.975523 283.774595 
L 466.37792 293.936942 
L 470.780318 303.626319 
L 475.182716 312.702518 
L 478.117648 318.352995 
L 481.05258 323.62214 
L 483.987511 328.502232 
L 486.922443 333.036878 
L 489.857375 337.254372 
L 492.792307 341.159694 
L 495.727239 344.764065 
L 498.66217 348.074226 
L 501.597102 351.090583 
L 504.532034 353.819007 
L 507.466966 356.251052 
L 510.401898 358.367437 
L 513.33683 360.186481 
L 516.271761 361.756157 
L 519.206693 363.111173 
L 523.609091 364.872504 
L 529.478955 366.97699 
L 533.881352 368.277607 
L 538.28375 369.329454 
L 542.686148 370.155792 
L 548.556011 370.971634 
L 555.893341 371.692389 
L 564.698136 372.305573 
L 574.970398 372.771795 
L 588.177591 373.125988 
L 607.254648 373.373034 
L 636.603966 373.494856 
L 670.355682 373.525041 
L 670.355682 373.525041 
" clip-path="url(#pe09ddd0c58)" style="fill: none; stroke: #ff0000; stroke-width: 1.5; stroke-linecap: square"/>
   </g>
   <g id="line2d_36">
    <path d="M 83.369318 373.525506 
L 121.523432 373.398563 
L 134.730625 373.129065 
L 142.067955 372.792062 
L 149.405284 372.181014 
L 158.21008 371.204601 
L 167.014875 369.974855 
L 177.287136 368.283034 
L 183.157 367.140583 
L 189.026864 365.798705 
L 194.896727 364.229296 
L 200.766591 362.422755 
L 206.636455 360.40239 
L 211.038852 358.670103 
L 215.44125 356.686306 
L 219.843648 354.392578 
L 224.246045 351.769773 
L 228.648443 348.821779 
L 233.050841 345.670898 
L 235.985773 343.402908 
L 238.920705 340.898461 
L 241.855636 338.115339 
L 244.790568 335.014453 
L 247.7255 331.54916 
L 250.660432 327.707573 
L 253.595364 323.503615 
L 256.530295 318.899346 
L 259.465227 313.724043 
L 262.400159 307.856904 
L 265.335091 301.449838 
L 269.737489 291.261605 
L 274.139886 280.394126 
L 278.542284 268.786057 
L 285.879614 249.309313 
L 288.814545 242.064722 
L 291.749477 235.498062 
L 294.684409 229.503639 
L 297.619341 223.897992 
L 300.554273 218.676971 
L 303.489205 213.919459 
L 306.424136 209.667598 
L 309.359068 205.875246 
L 312.294 202.48826 
L 315.228932 199.490827 
L 318.163864 196.884168 
L 321.098795 194.660803 
L 324.033727 192.806345 
L 326.968659 191.312073 
L 329.903591 190.160265 
L 332.838523 189.301593 
L 335.773455 188.718653 
L 338.708386 188.413148 
L 341.643318 188.393057 
L 344.57825 188.676583 
L 347.513182 189.292354 
L 350.448114 190.265846 
L 353.383045 191.565435 
L 356.317977 193.165346 
L 359.252909 195.059022 
L 362.187841 197.2545 
L 365.122773 199.754392 
L 368.057705 202.539588 
L 370.992636 205.585795 
L 373.927568 208.882049 
L 376.8625 212.438129 
L 381.264898 218.248274 
L 385.667295 224.511947 
L 391.537159 233.36191 
L 398.874489 244.860732 
L 410.614216 263.826269 
L 423.821409 285.017652 
L 431.158739 296.311754 
L 445.833398 318.380899 
L 450.235795 324.463683 
L 453.170727 328.187449 
L 457.573125 333.351661 
L 461.975523 338.137244 
L 466.37792 342.568586 
L 470.780318 346.660315 
L 475.182716 350.38236 
L 479.585114 353.719943 
L 483.987511 356.659835 
L 488.389909 359.252591 
L 492.792307 361.539557 
L 497.194705 363.542077 
L 501.597102 365.278018 
L 505.9995 366.76234 
L 510.401898 367.984664 
L 514.804295 368.957631 
L 520.674159 369.962523 
L 529.478955 371.15616 
L 536.816284 371.894718 
L 544.153614 372.396087 
L 552.958409 372.773176 
L 566.165602 373.11846 
L 585.242659 373.364021 
L 616.059443 373.495826 
L 670.355682 373.529952 
L 670.355682 373.529952 
" clip-path="url(#pe09ddd0c58)" style="fill: none; stroke: #008000; stroke-width: 1.5; stroke-linecap: square"/>
   </g>
   <g id="line2d_37">
    <path d="M 83.369318 372.338405 
L 89.239182 371.789472 
L 92.174114 371.317066 
L 95.109045 370.646347 
L 99.511443 369.364384 
L 102.446375 368.296279 
L 103.913841 367.626473 
L 105.381307 366.827859 
L 106.848773 365.859864 
L 109.783705 363.511554 
L 117.121034 357.024486 
L 118.5885 355.286361 
L 120.055966 353.127412 
L 121.523432 350.458555 
L 122.990898 347.294361 
L 124.458364 343.66477 
L 125.92583 339.599761 
L 127.393295 335.129256 
L 128.860761 330.260848 
L 130.328227 324.905971 
L 131.795693 318.950433 
L 133.263159 312.280025 
L 134.730625 304.780515 
L 136.198091 296.464868 
L 137.665557 287.344488 
L 139.133023 277.302814 
L 140.600489 266.223301 
L 142.067955 253.989426 
L 145.002886 226.008349 
L 150.87275 167.004398 
L 153.807682 140.570811 
L 156.742614 116.966434 
L 158.21008 106.405443 
L 159.677545 96.745637 
L 161.145011 87.971203 
L 162.612477 80.066383 
L 164.079943 73.015384 
L 165.547409 66.822537 
L 167.014875 61.472882 
L 168.482341 56.921756 
L 169.949807 53.124441 
L 171.417273 50.036258 
L 172.884739 47.631949 
L 174.352205 45.858297 
L 175.81967 44.62872 
L 177.287136 43.856632 
L 178.754602 43.455451 
L 180.222068 43.387273 
L 181.689534 43.622138 
L 183.157 44.085349 
L 186.091932 45.397844 
L 189.026864 46.892321 
L 190.49433 47.83578 
L 191.961795 49.035194 
L 193.429261 50.58435 
L 194.896727 52.536094 
L 196.364193 54.887964 
L 197.831659 57.650866 
L 199.299125 60.835669 
L 200.766591 64.453299 
L 202.234057 68.466091 
L 203.701523 72.931559 
L 205.168989 78.003335 
L 206.636455 83.835015 
L 208.10392 90.58025 
L 209.571386 98.35512 
L 212.506318 116.173941 
L 218.376182 153.58781 
L 224.246045 189.440931 
L 228.648443 214.915783 
L 231.583375 230.858963 
L 234.518307 245.784044 
L 237.453239 259.433312 
L 240.38817 271.614249 
L 243.323102 282.43701 
L 246.258034 292.073559 
L 249.192966 300.599055 
L 252.127898 308.113507 
L 255.06283 314.73281 
L 257.997761 320.543974 
L 260.932693 325.608547 
L 263.867625 330.060924 
L 271.204955 340.34624 
L 275.607352 346.102521 
L 278.542284 349.647361 
L 281.477216 352.849662 
L 284.412148 355.633177 
L 287.34708 358.007409 
L 290.282011 359.976896 
L 293.216943 361.576945 
L 296.151875 362.93196 
L 300.554273 364.69053 
L 306.424136 366.693495 
L 310.826534 368.007368 
L 315.228932 369.128149 
L 319.63133 370.066777 
L 325.501193 371.0515 
L 331.371057 371.768222 
L 337.24092 372.276301 
L 344.57825 372.693147 
L 354.850511 373.02352 
L 368.057705 373.191849 
L 453.170727 373.525417 
L 670.355682 373.532727 
L 670.355682 373.532727 
" clip-path="url(#pe09ddd0c58)" style="fill: none; stroke: #0000ff; stroke-width: 1.5; stroke-linecap: square"/>
   </g>
   <g id="patch_3">
    <path d="M 54.02 390.04 
L 54.02 26.88 
" style="fill: none; stroke: #000000; stroke-width: 0.8; stroke-linejoin: miter; stroke-linecap: square"/>
   </g>
   <g id="patch_4">
    <path d="M 699.705 390.04 
L 699.705 26.88 
" style="fill: none; stroke: #000000; stroke-width: 0.8; stroke-linejoin: miter; stroke-linecap: square"/>
   </g>
   <g id="patch_5">
    <path d="M 54.02 390.04 
L 699.705 390.04 
" style="fill: none; stroke: #000000; stroke-width: 0.8; stroke-linejoin: miter; stroke-linecap: square"/>
   </g>
   <g id="patch_6">
    <path d="M 54.02 26.88 
L 699.705 26.88 
" style="fill: none; stroke: #000000; stroke-width: 0.8; stroke-linejoin: miter; stroke-linecap: square"/>
   </g>
   <g id="text_20">
    <!-- CIE 1931 Standard Observer Color Matching Functions -->
    <g transform="translate(213.682187 20.88) scale(0.12 -0.12)">
     <defs>
      <path id="DejaVuSans-49" d="M 628 4666 
L 1259 4666 
L 1259 0 
L 628 0 
L 628 4666 
z
" transform="scale(0.015625)"/>
      <path id="DejaVuSans-45" d="M 628 4666 
L 3578 4666 
L 3578 4134 
L 1259 4134 
L 1259 2753 
L 3481 2753 
L 3481 2222 
L 1259 2222 
L 1259 531 
L 3634 531 
L 3634 0 
L 628 0 
L 628 4666 
z
" transform="scale(0.015625)"/>
      <path id="DejaVuSans-39" d="M 703 97 
L 703 672 
Q 941 559 1184 500 
Q 1428 441 1663 441 
Q 2288 441 2617 861 
Q 2947 1281 2994 2138 
Q 2813 1869 2534 1725 
Q 2256 1581 1919 1581 
Q 1219 1581 811 2004 
Q 403 2428 403 3163 
Q 403 3881 828 4315 
Q 1253 4750 1959 4750 
Q 2769 4750 3195 4129 
Q 3622 3509 3622 2328 
Q 3622 1225 3098 567 
Q 2575 -91 1691 -91 
Q 1453 -91 1209 -44 
Q 966 3 703 97 
z
M 1959 2075 
Q 2384 2075 2632 2365 
Q 2881 2656 2881 3163 
Q 2881 3666 2632 3958 
Q 2384 4250 1959 4250 
Q 1534 4250 1286 3958 
Q 1038 3666 1038 3163 
Q 1038 2656 1286 2365 
Q 1534 2075 1959 2075 
z
" transform="scale(0.015625)"/>
      <path id="DejaVuSans-33" d="M 2597 2516 
Q 3050 2419 3304 2112 
Q 3559 1806 3559 1356 
Q 3559 666 3084 287 
Q 2609 -91 1734 -91 
Q 1441 -91 1130 -33 
Q 819 25 488 141 
L 488 750 
Q 750 597 1062 519 
Q 1375 441 1716 441 
Q 2309 441 2620 675 
Q 2931 909 2931 1356 
Q 2931 1769 2642 2001 
Q 2353 2234 1838 2234 
L 1294 2234 
L 1294 2753 
L 1863 2753 
Q 2328 2753 2575 2939 
Q 2822 3125 2822 3475 
Q 2822 3834 2567 4026 
Q 2313 4219 1838 4219 
Q 1578 4219 1281 4162 
Q 984 4106 628 3988 
L 628 4550 
Q 988 4650 1302 4700 
Q 1616 4750 1894 4750 
Q 2613 4750 3031 4423 
Q 3450 4097 3450 3541 
Q 3450 3153 3228 2886 
Q 3006 2619 2597 2516 
z
" transform="scale(0.015625)"/>
      <path id="DejaVuSans-53" d="M 3425 4513 
L 3425 3897 
Q 3066 4069 2747 4153 
Q 2428 4238 2131 4238 
Q 1616 4238 1336 4038 
Q 1056 3838 1056 3469 
Q 1056 3159 1242 3001 
Q 1428 2844 1947 2747 
L 2328 2669 
Q 3034 2534 3370 2195 
Q 3706 1856 3706 1288 
Q 3706 609 3251 259 
Q 2797 -91 1919 -91 
Q 1588 -91 1214 -16 
Q 841 59 441 206 
L 441 856 
Q 825 641 1194 531 
Q 1563 422 1919 422 
Q 2459 422 2753 634 
Q 3047 847 3047 1241 
Q 3047 1584 2836 1778 
Q 2625 1972 2144 2069 
L 1759 2144 
Q 1053 2284 737 2584 
Q 422 2884 422 3419 
Q 422 4038 858 4394 
Q 1294 4750 2059 4750 
Q 2388 4750 2728 4690 
Q 3069 4631 3425 4513 
z
" transform="scale(0.015625)"/>
      <path id="DejaVuSans-64" d="M 2906 2969 
L 2906 4863 
L 3481 4863 
L 3481 0 
L 2906 0 
L 2906 525 
Q 2725 213 2448 61 
Q 2172 -91 1784 -91 
Q 1150 -91 751 415 
Q 353 922 353 1747 
Q 353 2572 751 3078 
Q 1150 3584 1784 3584 
Q 2172 3584 2448 3432 
Q 2725 3281 2906 2969 
z
M 947 1747 
Q 947 1113 1208 752 
Q 1469 391 1925 391 
Q 2381 391 2643 752 
Q 2906 1113 2906 1747 
Q 2906 2381 2643 2742 
Q 2381 3103 1925 3103 
Q 1469 3103 1208 2742 
Q 947 2381 947 1747 
z
" transform="scale(0.015625)"/>
      <path id="DejaVuSans-4f" d="M 2522 4238 
Q 1834 4238 1429 3725 
Q 1025 3213 1025 2328 
Q 1025 1447 1429 934 
Q 1834 422 2522 422 
Q 3209 422 3611 934 
Q 4013 1447 4013 2328 
Q 4013 3213 3611 3725 
Q 3209 4238 2522 4238 
z
M 2522 4750 
Q 3503 4750 4090 4092 
Q 4678 3434 4678 2328 
Q 4678 1225 4090 567 
Q 3503 -91 2522 -91 
Q 1538 -91 948 565 
Q 359 1222 359 2328 
Q 359 3434 948 4092 
Q 1538 4750 2522 4750 
z
" transform="scale(0.015625)"/>
      <path id="DejaVuSans-62" d="M 3116 1747 
Q 3116 2381 2855 2742 
Q 2594 3103 2138 3103 
Q 1681 3103 1420 2742 
Q 1159 2381 1159 1747 
Q 1159 1113 1420 752 
Q 1681 391 2138 391 
Q 2594 391 2855 752 
Q 3116 1113 3116 1747 
z
M 1159 2969 
Q 1341 3281 1617 3432 
Q 1894 3584 2278 3584 
Q 2916 3584 3314 3078 
Q 3713 2572 3713 1747 
Q 3713 922 3314 415 
Q 2916 -91 2278 -91 
Q 1894 -91 1617 61 
Q 1341 213 1159 525 
L 1159 0 
L 581 0 
L 581 4863 
L 1159 4863 
L 1159 2969 
z
" transform="scale(0.015625)"/>
      <path id="DejaVuSans-73" d="M 2834 3397 
L 2834 2853 
Q 2591 2978 2328 3040 
Q 2066 3103 1784 3103 
Q 1356 3103 1142 2972 
Q 928 2841 928 2578 
Q 928 2378 1081 2264 
Q 1234 2150 1697 2047 
L 1894 2003 
Q 2506 1872 2764 1633 
Q 3022 1394 3022 966 
Q 3022 478 2636 193 
Q 2250 -91 1575 -91 
Q 1294 -91 989 -36 
Q 684 19 347 128 
L 347 722 
Q 666 556 975 473 
Q 1284 391 1588 391 
Q 1994 391 2212 530 
Q 2431 669 2431 922 
Q 2431 1156 2273 1281 
Q 2116 1406 1581 1522 
L 1381 1569 
Q 847 1681 609 1914 
Q 372 2147 372 2553 
Q 372 3047 722 3315 
Q 1072 3584 1716 3584 
Q 2034 3584 2315 3537 
Q 2597 3491 2834 3397 
z
" transform="scale(0.015625)"/>
     </defs>
     <use xlink:href="#DejaVuSans-43"/>
     <use xlink:href="#DejaVuSans-49" x="69.824219"/>
     <use xlink:href="#DejaVuSans-45" x="99.316406"/>
     <use xlink:href="#DejaVuSans-20" x="162.5"/>
     <use xlink:href="#DejaVuSans-31" x="194.287109"/>
     <use xlink:href="#DejaVuSans-39" x="257.910156"/>
     <use xlink:href="#DejaVuSans-33" x="321.533203"/>
     <use xlink:href="#DejaVuSans-31" x="385.15625"/>
     <use xlink:href="#DejaVuSans-20" x="448.779297"/>
     <use xlink:href="#DejaVuSans-53" x="480.566406"/>
     <use xlink:href="#DejaVuSans-74" x="544.042969"/>
     <use xlink:href="#DejaVuSans-61" x="583.251953"/>
     <use xlink:href="#DejaVuSans-6e" x="644.53125"/>
     <use xlink:href="#DejaVuSans-64" x="707.910156"/>
     <use xlink:href="#DejaVuSans-61" x="771.386719"/>
     <use xlink:href="#DejaVuSans-72" x="832.666016"/>
     <use xlink:href="#DejaVuSans-64" x="872.029297"/>
     <use xlink:href="#DejaVuSans-20" x="935.505859"/>
     <use xlink:href="#DejaVuSans-4f" x="967.292969"/>
     <use xlink:href="#DejaVuSans-62" x="1046.003906"/>
     <use xlink:href="#DejaVuSans-73" x="1109.480469"/>
     <use xlink:href="#DejaVuSans-65" x="1161.580078"/>
     <use xlink:href="#DejaVuSans-72" x="1223.103516"/>
     <use xlink:href="#DejaVuSans-76" x="1264.216797"/>
     <use xlink:href="#DejaVuSans-65" x="1323.396484"/>
     <use xlink:href="#DejaVuSans-72" x="1384.919922"/>
     <use xlink:href="#DejaVuSans-20" x="1426.033203"/>
     <use xlink:href="#DejaVuSans-43" x="1457.820312"/>
     <use xlink:href="#DejaVuSans-6f" x="1527.644531"/>
     <use xlink:href="#DejaVuSans-6c" x="1588.826172"/>
     <use xlink:href="#DejaVuSans-6f" x="1616.609375"/>
     <use xlink:href="#DejaVuSans-72" x="1677.791016"/>
     <use xlink:href="#DejaVuSans-20" x="1718.904297"/>
     <use xlink:href="#DejaVuSans-4d" x="1750.691406"/>
     <use xlink:href="#DejaVuSans-61" x="1836.970703"/>
     <use xlink:href="#DejaVuSans-74" x="1898.25"/>
     <use xlink:href="#DejaVuSans-63" x="1937.458984"/>
     <use xlink:href="#DejaVuSans-68" x="1992.439453"/>
     <use xlink:href="#DejaVuSans-69" x="2055.818359"/>
     <use xlink:href="#DejaVuSans-6e" x="2083.601562"/>
     <use xlink:href="#DejaVuSans-67" x="2146.980469"/>
     <use xlink:href="#DejaVuSans-20" x="2210.457031"/>
     <use xlink:href="#DejaVuSans-46" x="2242.244141"/>
     <use xlink:href="#DejaVuSans-75" x="2294.263672"/>
     <use xlink:href="#DejaVuSans-6e" x="2357.642578"/>
     <use xlink:href="#DejaVuSans-63" x="2421.021484"/>
     <use xlink:href="#DejaVuSans-74" x="2476.001953"/>
     <use xlink:href="#DejaVuSans-69" x="2515.210938"/>
     <use xlink:href="#DejaVuSans-6f" x="2542.994141"/>
     <use xlink:href="#DejaVuSans-6e" x="2604.175781"/>
     <use xlink:href="#DejaVuSans-73" x="2667.554688"/>
    </g>
   </g>
   <g id="legend_1">
    <g id="patch_7">
     <path d="M 633.19875 79.74875 
L 692.705 79.74875 
Q 694.705 79.74875 694.705 77.74875 
L 694.705 33.88 
Q 694.705 31.88 692.705 31.88 
L 633.19875 31.88 
Q 631.19875 31.88 631.19875 33.88 
L 631.19875 77.74875 
Q 631.19875 79.74875 633.19875 79.74875 
z
" style="fill: #ffffff; opacity: 0.8; stroke: #cccccc; stroke-linejoin: miter"/>
    </g>
    <g id="line2d_38">
     <path d="M 635.19875 39.978437 
L 645.19875 39.978437 
L 655.19875 39.978437 
" style="fill: none; stroke: #ff0000; stroke-width: 1.5; stroke-linecap: square"/>
    </g>
    <g id="text_21">
     <!-- x_bar -->
     <g transform="translate(663.19875 43.478437) scale(0.1 -0.1)">
      <defs>
       <path id="DejaVuSans-78" d="M 3513 3500 
L 2247 1797 
L 3578 0 
L 2900 0 
L 1881 1375 
L 863 0 
L 184 0 
L 1544 1831 
L 300 3500 
L 978 3500 
L 1906 2253 
L 2834 3500 
L 3513 3500 
z
" transform="scale(0.015625)"/>
       <path id="DejaVuSans-5f" d="M 3263 -1063 
L 3263 -1509 
L -63 -1509 
L -63 -1063 
L 3263 -1063 
z
" transform="scale(0.015625)"/>
      </defs>
      <use xlink:href="#DejaVuSans-78"/>
      <use xlink:href="#DejaVuSans-5f" x="59.179688"/>
      <use xlink:href="#DejaVuSans-62" x="109.179688"/>
      <use xlink:href="#DejaVuSans-61" x="172.65625"/>
      <use xlink:href="#DejaVuSans-72" x="233.935547"/>
     </g>
    </g>
    <g id="line2d_39">
     <path d="M 635.19875 54.934687 
L 645.19875 54.934687 
L 655.19875 54.934687 
" style="fill: none; stroke: #008000; stroke-width: 1.5; stroke-linecap: square"/>
    </g>
    <g id="text_22">
     <!-- y_bar -->
     <g transform="translate(663.19875 58.434687) scale(0.1 -0.1)">
      <defs>
       <path id="DejaVuSans-79" d="M 2059 -325 
Q 1816 -950 1584 -1140 
Q 1353 -1331 966 -1331 
L 506 -1331 
L 506 -850 
L 844 -850 
Q 1081 -850 1212 -737 
Q 1344 -625 1503 -206 
L 1606 56 
L 191 3500 
L 800 3500 
L 1894 763 
L 2988 3500 
L 3597 3500 
L 2059 -325 
z
" transform="scale(0.015625)"/>
      </defs>
      <use xlink:href="#DejaVuSans-79"/>
      <use xlink:href="#DejaVuSans-5f" x="59.179688"/>
      <use xlink:href="#DejaVuSans-62" x="109.179688"/>
      <use xlink:href="#DejaVuSans-61" x="172.65625"/>
      <use xlink:href="#DejaVuSans-72" x="233.935547"/>
     </g>
    </g>
    <g id="line2d_40">
     <path d="M 635.19875 69.890938 
L 645.19875 69.890938 
L 655.19875 69.890938 
" style="fill: none; stroke: #0000ff; stroke-width: 1.5; stroke-linecap: square"/>
    </g>
    <g id="text_23">
     <!-- z_bar -->
     <g transform="translate(663.19875 73.390938) scale(0.1 -0.1)">
      <defs>
       <path id="DejaVuSans-7a" d="M 353 3500 
L 3084 3500 
L 3084 2975 
L 922 459 
L 3084 459 
L 3084 0 
L 275 0 
L 275 525 
L 2438 3041 
L 353 3041 
L 353 3500 
z
" transform="scale(0.015625)"/>
      </defs>
      <use xlink:href="#DejaVuSans-7a"/>
      <use xlink:href="#DejaVuSans-5f" x="52.490234"/>
      <use xlink:href="#DejaVuSans-62" x="102.490234"/>
      <use xlink:href="#DejaVuSans-61" x="165.966797"/>
      <use xlink:href="#DejaVuSans-72" x="227.246094"/>
     </g>
    </g>
   </g>
  </g>
 </g>
 <defs>
  <clipPath id="pe09ddd0c58">
   <rect x="54.02" y="26.88" width="645.685" height="363.16"/>
  </clipPath>
 </defs>
</svg>
